<?xml version="1.0" encoding="UTF-8"?>
<svg width="37px" height="37px" viewBox="0 0 37 37" version="1.1" xmlns="http://www.w3.org/2000/svg" xmlns:xlink="http://www.w3.org/1999/xlink">
    <!-- Generator: Sketch 60.1 (88133) - https://sketch.com -->
    <title>Fill 1</title>
    <desc>Created with Sketch.</desc>
    <g id="Page-1" stroke="none" stroke-width="1" fill="none" fill-rule="evenodd">
        <path d="M27.9981631,25.9385918 C27.9981631,27.6215764 26.6212344,29 24.9368112,29 L11.0613519,29 C9.37766348,29 8,27.6215764 8,25.9385918 L8,12.0614082 C8,10.3765866 9.37766348,9 11.0613519,9 L24.9386481,9 C26.6212344,9 28,10.3765866 28,12.0614082 L28,25.9385918 L27.9981631,25.9385918 Z M18.5,0 C8.28245,0 0,8.28208 0,18.5 C0,28.71755 8.28245,37 18.5,37 C28.71755,37 37,28.71755 37,18.5 C37,8.28208 28.71755,0 18.5,0 L18.5,0 Z M24.0852941,18.1185954 C24.0852941,21.1209117 21.6698529,23.5558232 18.6915441,23.5558232 C15.7128676,23.5558232 13.2977941,21.1209117 13.2977941,18.1185954 C13.2977941,17.487075 13.4099265,16.8814973 13.6073529,16.3163161 L11,16.3163161 L11,23.6862781 C11,24.9585843 12.0330882,26 13.2963235,26 L23.7040441,26 C24.9665441,26 26,24.9585843 26,23.6862781 L26,14 L22.2069853,14 C23.3551471,14.9976837 24.0852941,16.4708607 24.0852941,18.1185954 L24.0852941,18.1185954 Z M24.4994367,13 C25.3293278,13 26,12.3279489 26,11.5 C26,10.6705485 25.3293278,10 24.4994367,10 C23.6710477,10 23,10.6705485 23,11.5 C23,12.3279489 23.6710477,13 24.4994367,13 L24.4994367,13 Z M18.5,21 C19.8794984,21 21,19.8791576 21,18.5 C21,17.1205016 19.8794984,16 18.5,16 C17.1198201,16 16,17.1205016 16,18.5 C16,19.8791576 17.1198201,21 18.5,21 L18.5,21 Z" id="Fill-1" fill="#000000"></path>
    </g>
</svg>