<?xml version="1.0" encoding="UTF-8"?>
<svg width="37px" height="37px" viewBox="0 0 37 37" version="1.1" xmlns="http://www.w3.org/2000/svg" xmlns:xlink="http://www.w3.org/1999/xlink">
    <!-- Generator: Sketch 60.1 (88133) - https://sketch.com -->
    <title>Combined Shape</title>
    <desc>Created with Sketch.</desc>
    <g id="Page-1" stroke="none" stroke-width="1" fill="none" fill-rule="evenodd">
        <path d="M18.5,0 C28.7172031,0 37,8.28279687 37,18.5 C37,28.7172031 28.7172031,37 18.5,37 C8.28279687,37 0,28.7172031 0,18.5 C0,8.28279687 8.28279687,0 18.5,0 Z M21.5039375,5.78125 C17.9733281,5.78125 15.5561875,7.9365 15.5561875,11.8943437 L15.5561875,15.3052813 L11.5625,15.3052813 L11.5625,19.9302813 L15.5561875,19.9302813 L15.5561875,31.796875 L20.3320781,31.796875 L20.3320781,19.9302813 L24.3153594,19.9302813 L24.9114063,15.3052813 L20.3320781,15.3052813 L20.3320781,12.3522188 C20.3320781,11.0132812 20.7038125,10.101 22.6237656,10.101 L25.0727031,10.0998437 L25.0727031,5.96335937 C24.6495156,5.90728125 23.1955313,5.78125 21.5039375,5.78125 Z" id="Combined-Shape" fill="#000000"></path>
    </g>
</svg>